<svg width="311" height="409" viewBox="0 0 311 409" fill="none" xmlns="http://www.w3.org/2000/svg">
<g clip-path="url(#clip0_2_3888)">
<path d="M57.752 63.8918C55.075 64.569 53.2408 65.5804 51.5851 67.2646C48.8107 70.019 48.6269 71.8594 50.4302 79.2259C51.8275 84.929 51.954 87.8772 51.0589 93.8473C50.4945 97.5737 50.4492 98.7319 50.8411 99.9171C52.581 105.131 63.5926 107.36 68.8748 103.575C71.1273 101.953 71.8984 99.8556 72.1445 94.7423C72.308 90.8681 72.8957 86.5825 73.6492 83.8877C73.8297 83.284 73.4708 83.2148 69.5479 83.3303C67.21 83.3991 64.5983 83.5957 63.8093 83.7386C62.2721 84.0631 62.1976 84.2248 61.7983 86.8295L61.6052 88.351L64.0223 88.2798C65.5281 88.2355 66.4045 88.3693 66.4139 88.6881C66.4385 89.5251 65.3885 95.6194 65.0228 96.6673C64.5103 98.1184 62.7541 99.0876 60.4955 99.1541C58.9105 99.2008 58.3499 99.0178 57.5735 98.2429L56.634 97.3132L57.5513 92.1004C58.6351 85.8057 58.5433 81.3406 57.3185 76.1111C56.4577 72.4665 56.453 72.3071 57.1381 71.3296C58.5432 69.2139 62.2283 69.1054 64.7857 71.1044C66.1658 72.1807 66.7115 73.2018 67.3856 75.8945C67.6563 77.0035 67.6959 77.0023 71.0244 76.9043L74.3925 76.8051L74.3456 75.2109C74.2869 73.2181 73.4777 71.3272 71.623 68.9485C68.2423 64.5802 62.7899 62.5867 57.752 63.8918Z" fill="#3D8F94"/>
<path fill-rule="evenodd" clip-rule="evenodd" d="M76.869 72.9913C75.9332 69.0848 75.874 64.406 76.723 61.9513C77.8799 58.511 82.6499 55.1747 87.6506 54.2243C90.9252 53.6293 95.3569 54.2514 98.0752 55.6955C101.657 57.6182 102.686 60.1821 101.443 64.2944C100.265 68.0721 100.301 70.8266 101.549 76.6224C103.321 84.8653 102.72 88.9339 99.2949 91.8904C97.7648 93.2287 95.1025 94.3307 92.4135 95.0766L89.294 90.6445C93.0402 90.7829 94.7906 89.0705 95.1265 83.1556C95.3234 80.0773 95.1579 78.6695 94.3261 75.6947C93.4311 72.3772 93.3578 71.5257 93.6841 66.4233C94.0401 60.8571 94.0455 60.7728 93.0202 60.1568C90.4851 58.5127 85.5638 59.5528 84.3444 61.973C83.1674 64.3958 83.1804 69.5199 84.4024 74.3826C85.5432 78.9889 85.7265 80.302 84.6227 84.0076L76.869 72.9913Z" fill="#3D8F94"/>
<path d="M77 73L226 286" stroke="black" stroke-width="0.5"/>
<path d="M72.167 6.03004C71.6668 6.06423 71.167 5.95789 70.724 5.72303C70.3085 5.49182 69.9696 5.14424 69.749 4.72303C69.4961 4.2305 69.3593 3.68664 69.349 3.13306C69.3111 2.57975 69.4047 2.02528 69.6221 1.51502C69.8132 1.07592 70.1254 0.700283 70.5221 0.432015C70.949 0.174313 71.4334 0.0270667 71.9315 0.00367001C72.4297 -0.0197266 72.9258 0.0814311 73.375 0.297982C73.7747 0.541773 74.0849 0.90841 74.259 1.34303L73.859 1.57301C73.7305 1.2007 73.479 0.883245 73.146 0.672982C72.878 0.514874 72.5793 0.416047 72.2699 0.383065C71.9605 0.350082 71.6475 0.383759 71.3522 0.481819C71.0569 0.57988 70.786 0.740036 70.5577 0.951546C70.3295 1.16306 70.1493 1.421 70.0291 1.70802C69.8495 2.15176 69.7726 2.63038 69.8041 3.10804C69.8126 3.58598 69.9233 4.05655 70.129 4.48805C70.3035 4.85044 70.5821 5.15267 70.9291 5.35609C71.3034 5.55819 71.7277 5.64906 72.152 5.61805C72.4419 5.61295 72.7278 5.54755 72.9911 5.42603C73.2115 5.32439 73.4077 5.17714 73.567 4.99403C73.7149 4.82135 73.8259 4.62027 73.8931 4.40308C73.9603 4.18776 73.9896 3.96242 73.98 3.73707L73.9661 3.40907L71.9811 3.49403L71.963 3.07703L74.363 2.97706L74.485 5.839L74.1211 5.85499L74.05 4.589L74.13 4.60206C74.0169 5.00553 73.7746 5.36071 73.4401 5.61305C73.0681 5.87853 72.6239 6.02401 72.167 6.03004Z" fill="black"/>
<path d="M88.1581 7.09302L87.693 7.021L87.245 5.09399L84.484 4.66895L83.477 6.36902L83.0119 6.29797L86.218 0.868042L86.735 0.947998L88.1581 7.09302ZM84.7039 4.29297L87.15 4.66895L86.407 1.34302L84.7039 4.29297Z" fill="black"/>
<path d="M103.803 5.70105L101.762 11.187L101.362 11.0391L102.883 6.94812L103.304 5.97009H103.296L99.396 10.312L99.0131 10.17L98.903 4.33801H98.894L98.573 5.354L97.052 9.44507L96.652 9.29602L98.693 3.80908L99.316 4.04102L99.425 8.81311L99.386 9.755H99.396L99.97 9.02209L103.17 5.47205L103.803 5.70105Z" fill="black"/>
<path d="M110.257 15.478L113.366 10.5181L116.755 12.642L116.538 12.9871L113.525 11.1L112.325 13.015L114.707 14.5081L114.485 14.8621L112.103 13.369L110.85 15.369L113.983 17.333L113.766 17.678L110.257 15.478Z" fill="black"/>
<path d="M126.507 20.342C126.883 20.6786 127.157 21.1132 127.299 21.597C127.424 22.0574 127.41 22.5442 127.261 22.9971C127.071 23.5147 126.778 23.9886 126.4 24.39C126.022 24.7915 125.566 25.1122 125.061 25.333C124.618 25.5076 124.134 25.5487 123.668 25.451C123.183 25.3255 122.737 25.0792 122.372 24.7351C122.007 24.391 121.736 23.9603 121.582 23.483C121.455 23.0232 121.467 22.5361 121.616 22.083C121.806 21.5655 122.099 21.092 122.477 20.6907C122.855 20.2894 123.311 19.9687 123.816 19.748C124.261 19.5722 124.748 19.5314 125.216 19.631C125.704 19.7447 126.15 19.9907 126.507 20.342ZM126.226 20.6421C125.93 20.3487 125.556 20.1459 125.149 20.058C124.751 19.9826 124.34 20.0254 123.966 20.181C123.087 20.5785 122.401 21.3065 122.055 22.207C121.922 22.5891 121.904 23.0017 122.002 23.394C122.123 23.7922 122.346 24.152 122.649 24.4375C122.951 24.723 123.323 24.9246 123.728 25.0221C124.125 25.0956 124.535 25.0517 124.907 24.896C125.786 24.4987 126.473 23.7707 126.818 22.87C126.95 22.489 126.97 22.078 126.875 21.686C126.764 21.2816 126.538 20.918 126.225 20.639L126.226 20.6421Z" fill="black"/>
<path d="M137.724 33.785L132.935 37.1531L132.618 36.703L134.591 31.52L134.958 30.7311L134.952 30.724L134.388 31.1541L130.588 33.821L130.343 33.473L135.132 30.1061L135.454 30.563L133.483 35.733L133.114 36.5331L133.685 36.11L137.48 33.441L137.724 33.785Z" fill="black"/>
<path d="M141.361 55.3131L147.017 53.8L147.551 55.8C147.722 56.2838 147.716 56.8129 147.532 57.2921C147.435 57.4835 147.295 57.6504 147.124 57.7804C146.953 57.9104 146.755 58.0002 146.545 58.0431C146.247 58.1317 145.927 58.1169 145.638 58.0011C145.346 57.8731 145.112 57.6411 144.982 57.3501H144.974C145.022 57.6954 144.945 58.0465 144.757 58.3401C144.567 58.6222 144.278 58.8226 143.947 58.9011C143.736 58.9675 143.513 58.9823 143.295 58.9446C143.078 58.9068 142.872 58.8175 142.696 58.6841C142.283 58.3284 142.002 57.8446 141.896 57.3101L141.361 55.3131ZM141.871 55.6361L142.313 57.29C142.388 57.684 142.594 58.0414 142.896 58.3051C143.035 58.3907 143.19 58.4471 143.352 58.4707C143.513 58.4943 143.678 58.4847 143.836 58.4425C143.993 58.4003 144.141 58.3264 144.269 58.2252C144.397 58.124 144.503 57.9976 144.581 57.854C144.708 57.4743 144.706 57.0634 144.575 56.6851L144.132 55.031L141.871 55.6361ZM144.527 54.925L144.949 56.5021C145.195 57.4214 145.686 57.7827 146.423 57.5861C147.16 57.3894 147.405 56.831 147.159 55.911L146.737 54.3351L144.527 54.925Z" fill="black"/>
<path d="M150 71.532L146.277 69.7321L144.003 69.906L143.97 69.463L146.242 69.2891L149.648 66.946L149.689 67.468L147.776 68.761L146.719 69.474L147.873 70.0181L149.959 71.005L150 71.532Z" fill="black"/>
<path d="M145.446 93.4921L141.303 94.9691L141.44 94.4451L145.279 93.082L145.446 93.4921ZM147.946 92.7141L142.281 91.2361L142.393 90.8081L148.057 92.285L147.946 92.7141ZM146.988 96.3871L145.176 93.3871L145.126 93.301L144.026 91.4551L144.609 91.6071L147.139 95.8241L146.988 96.3871Z" fill="black"/>
<path d="M136.31 107.226L136.51 106.802L138.484 106.929L139.684 104.407L138.344 102.951L138.544 102.527L142.818 107.162L142.592 107.635L136.31 107.226ZM139.989 104.726L138.923 106.96L142.323 107.207L139.989 104.726Z" fill="black"/>
<path d="M132.524 118.449L129.09 118.249L129.402 117.828L132.547 117.999L132.524 118.449ZM135.117 119.957C134.838 120.377 134.416 120.681 133.929 120.813C133.705 120.862 133.473 120.86 133.251 120.806C133.028 120.753 132.821 120.65 132.644 120.504C132.454 120.378 132.297 120.21 132.183 120.013C132.07 119.815 132.004 119.594 131.991 119.367C131.986 118.863 132.16 118.374 132.481 117.986L132.486 117.934L133.486 116.589L131.45 115.075L131.715 114.72L136.415 118.212L135.117 119.957ZM132.794 118.22C132.541 118.516 132.402 118.893 132.401 119.282C132.456 119.623 132.642 119.928 132.92 120.134C133.197 120.339 133.544 120.428 133.886 120.382C134.26 120.273 134.582 120.032 134.793 119.704L135.82 118.322L133.82 116.836L132.794 118.22Z" fill="black"/>
<path d="M125.293 130.828C124.927 131.175 124.472 131.413 123.978 131.514C123.51 131.601 123.026 131.548 122.588 131.362C122.088 131.129 121.64 130.798 121.271 130.388C120.902 129.978 120.62 129.497 120.442 128.975C120.306 128.518 120.306 128.032 120.442 127.575C120.608 127.101 120.89 126.677 121.264 126.342C121.637 126.007 122.089 125.771 122.577 125.657C123.046 125.569 123.53 125.62 123.969 125.806C124.469 126.039 124.917 126.371 125.286 126.781C125.655 127.191 125.937 127.672 126.115 128.194C126.252 128.651 126.252 129.137 126.115 129.594C125.962 130.074 125.677 130.501 125.293 130.828ZM125.02 130.528C125.337 130.257 125.569 129.901 125.69 129.502C125.799 129.112 125.79 128.699 125.666 128.314C125.343 127.405 124.674 126.66 123.804 126.242C123.434 126.078 123.024 126.026 122.625 126.092C122.218 126.18 121.842 126.373 121.533 126.651C121.223 126.929 120.992 127.283 120.861 127.678C120.755 128.068 120.765 128.48 120.889 128.864C121.213 129.773 121.882 130.518 122.751 130.936C123.12 131.1 123.528 131.153 123.927 131.09C124.338 131.01 124.717 130.814 125.02 130.525V130.528Z" fill="black"/>
<path d="M111.694 134.161L108.681 135.961L108.471 135.612L111.866 133.58L114.872 138.603L114.491 138.831L111.694 134.161Z" fill="black"/>
<path d="M102.18 144.966L100.045 139.516L100.457 139.354L102.593 144.804L102.18 144.966Z" fill="black"/>
<path d="M87.678 149.005L86.524 143.265L87.063 143.157L91.012 147.049L91.587 147.703H91.595L91.429 147.012L90.514 142.463L90.931 142.38L92.085 148.12L91.5359 148.23L87.598 144.344L87.013 143.683L87.17 144.375L88.085 148.923L87.678 149.005Z" fill="black"/>
<path d="M72.563 144.18H73.0341L73.772 146.015H76.566L77.3 144.178H77.771L75.436 150.035H74.912L72.563 144.18ZM76.406 146.42H73.932L75.177 149.595L76.406 146.42Z" fill="black"/>
<path d="M53.0029 140.605L52.693 146.73L52.26 146.57L52.595 140.889L49.28 145.472L48.797 145.295L49.245 139.646L45.8099 144.193L45.394 144.04L49.1329 139.179L49.649 139.37L49.3359 143.631L49.2059 144.931H49.214L49.96 143.854L52.4869 140.407L53.0029 140.605Z" fill="black"/>
<path d="M36.1579 139.185L39.177 134.169L39.556 134.397L36.537 139.413L36.1579 139.185Z" fill="black"/>
<path d="M24.096 130.13L27.945 125.719L28.359 126.08L27.679 131.58L27.511 132.434L27.518 132.441L27.964 131.889L31.013 128.389L31.333 128.669L27.485 133.081L27.0641 132.714L27.7461 127.223L27.9131 126.356L27.4601 126.903L24.41 130.403L24.096 130.13Z" fill="black"/>
<path d="M14.206 118.92L17.685 119.357L17.7851 119.371L19.918 119.647L19.438 120.011L14.56 119.387L14.206 118.92ZM16.498 121.947L21.1649 118.414L21.432 118.768L16.765 122.302L16.498 121.947ZM17.43 119.506L18.836 115.337L19.162 115.769L17.856 119.628L17.43 119.506Z" fill="black"/>
<path d="M7.87209 108.622C7.63356 108.178 7.52436 107.676 7.55702 107.173C7.59807 106.699 7.77676 106.247 8.07106 105.873C8.42791 105.452 8.86614 105.107 9.35951 104.86C9.85289 104.613 10.3912 104.468 10.942 104.434C11.4174 104.421 11.8859 104.548 12.2901 104.799C12.7031 105.084 13.0375 105.468 13.2623 105.917C13.4872 106.366 13.5951 106.864 13.5761 107.365C13.5366 107.839 13.3586 108.291 13.0641 108.665C12.7076 109.086 12.2693 109.431 11.7759 109.678C11.2824 109.926 10.744 110.071 10.193 110.104C9.71613 110.116 9.24633 109.987 8.84206 109.734C8.42205 109.46 8.08629 109.075 7.87209 108.622ZM8.23708 108.439C8.41407 108.816 8.69598 109.135 9.04909 109.356C9.39647 109.563 9.79683 109.665 10.2011 109.648C11.1624 109.574 12.0563 109.126 12.6911 108.4C12.9473 108.086 13.1062 107.703 13.1481 107.3C13.1706 106.884 13.0844 106.47 12.898 106.098C12.7116 105.726 12.4315 105.409 12.0851 105.178C11.7372 104.973 11.3374 104.874 10.9341 104.892C9.972 104.963 9.07706 105.412 8.44411 106.14C8.18838 106.453 8.02854 106.833 7.98402 107.234C7.94981 107.653 8.03773 108.073 8.23708 108.443V108.439Z" fill="black"/>
<path d="M8.48297 93.941L3.25104 97.1411L3.13898 96.6941L8.01898 93.7651L2.36493 93.6151L2.23993 93.1151L7.15594 90.2971L1.46295 90.0261L1.35504 89.5961L7.47797 89.941L7.612 90.4741L3.91205 92.6201L2.76202 93.2471V93.2561L4.07294 93.2651L8.34393 93.4071L8.48297 93.941Z" fill="black"/>
<path d="M0.00201893 77.8531C-0.0302001 77.3796 0.062947 76.906 0.272038 76.48C0.483304 76.0919 0.814424 75.7825 1.21601 75.5981L1.51606 75.9601C1.1513 76.1095 0.846105 76.3753 0.648015 76.7161C0.468187 77.0743 0.387693 77.4742 0.414983 77.8741C0.419134 78.1785 0.487349 78.4786 0.615056 78.755C0.714855 78.9722 0.871757 79.1582 1.06904 79.2931C1.25086 79.4125 1.46579 79.4713 1.68305 79.4611C1.80771 79.4604 1.93093 79.4342 2.04511 79.3842C2.15929 79.3341 2.26197 79.2613 2.34699 79.1701C2.56234 78.8801 2.69664 78.5381 2.73603 78.1791L2.94306 77.0181C2.99083 76.5711 3.16067 76.1459 3.43403 75.7891C3.54786 75.668 3.68528 75.5715 3.83783 75.5056C3.99039 75.4398 4.15482 75.4059 4.32099 75.406C4.62758 75.3906 4.93052 75.478 5.18195 75.6541C5.44576 75.8435 5.65325 76.101 5.78205 76.3991C5.93894 76.7576 6.02286 77.1438 6.029 77.5351C6.04857 77.9155 6.00367 78.2965 5.89606 78.662C5.80529 78.9732 5.64949 79.2616 5.43903 79.5081C5.23827 79.7399 4.98438 79.9196 4.69904 80.032L4.38398 79.6531C4.64942 79.5666 4.88979 79.4166 5.08405 79.2161C5.27925 79.0084 5.42329 78.7581 5.50495 78.485C5.59793 78.176 5.63726 77.8533 5.62104 77.531C5.61526 77.2299 5.55804 76.932 5.45197 76.6501C5.36746 76.4168 5.21998 76.2116 5.02594 76.057C4.83416 75.9168 4.59905 75.8488 4.362 75.865C4.24478 75.8669 4.12921 75.8932 4.02265 75.942C3.91609 75.9909 3.82085 76.0614 3.74299 76.1491C3.53985 76.4239 3.41669 76.7496 3.38703 77.0901L3.16498 78.3051C3.11514 78.624 3.01567 78.9331 2.87006 79.2211C2.76315 79.4346 2.59906 79.6142 2.39606 79.74C2.19957 79.853 1.97769 79.9147 1.75104 79.9191C1.45463 79.932 1.16153 79.8526 0.912053 79.692C0.640909 79.5147 0.422001 79.2683 0.27802 78.9781C0.102364 78.6287 0.00800906 78.2441 0.00201893 77.8531Z" fill="black"/>
<path d="M0.713043 64.949L6.50003 65.839L6.43204 66.276L0.644928 65.387L0.713043 64.949ZM1.28897 61.197L3.39993 63.9969L3.45901 64.077L4.746 65.7999L4.14603 65.709L1.19693 61.7739L1.28897 61.197ZM3.11502 63.918L7.08597 62.025L7.00296 62.5599L3.32401 64.3099L3.11502 63.918Z" fill="black"/>
<path d="M10.8009 49.2911L10.644 49.7341L8.66702 49.811L7.72903 52.4421L9.21097 53.7531L9.05301 54.196L4.32498 50.024L4.50101 49.5311L10.8009 49.2911ZM7.40103 52.1541L8.23196 49.8241L4.82401 49.9241L7.40103 52.1541Z" fill="black"/>
</g>
<defs>
<clipPath id="clip0_2_3888">
<rect width="310.08" height="408.832" fill="white"/>
</clipPath>
</defs>
</svg>
