<svg xmlns="http://www.w3.org/2000/svg" width="132" height="132" viewBox="0 0 132 132" fill="none">
<path d="M0.000137329 65.999C-0.0211487 52.8531 3.90355 40.0034 11.2663 29.1129C18.4271 18.5056 28.5104 10.2028 40.2945 5.21036C50.4044 0.93165 61.4231 -0.753077 72.3496 0.309209C83.2761 1.3715 93.764 5.14704 102.86 11.293C113.468 18.4537 121.771 28.5372 126.763 40.3213C131.042 50.4311 132.727 61.4499 131.664 72.3764C130.602 83.3029 126.826 93.7908 120.68 102.887C113.52 113.494 103.436 121.797 91.652 126.79C81.5422 131.068 70.5234 132.753 59.5969 131.691C48.6705 130.628 38.1826 126.853 29.0862 120.707C18.4789 113.546 10.176 103.463 5.18359 91.6788C1.74567 83.5548 -0.017334 74.8205 0.000137329 65.999ZM81.1978 66.5065L56.8385 51.7894V81.2236L81.1978 66.5065Z" fill="white"/>
</svg>